:SAMPLES-PER-SECOND 30
:FULLY-SPECIFIED
:DEGREES
941
root  51.8471 37.7258 -0.00960628 -6.50098 -83.9973 5.46748
RightUpLeg  -11.2006 -0.586478 2.6656
RightLeg  31.3874 -5.76397 -4.03803
RightFoot  -18.8093 -0.267908 -2.17153
RightToes  -8.3237e-009 0 -3.6325e-017
Spine  8.00563 0.684138 4.03319
Spine1  1.33082 1.12239 -0.166095
HEad  -13.3213 -4.01825 7.03995
LeftShoulder1  -0.211424 4.08817 -30.1039
LeftArm  11.0998 5.96853 -40.7714
LeftForeArm  25.3335 -17.8157 -6.25285
LeftHand  -0.035693 5.40626 -3.40881
RightShoulder  -0.847381 -5.88446 28.9736
RightArm  23.103 -1.11863 46.1962
RightForeArm  4.76203 25.7017 5.26585
RightHand  -0.255756 6.8011 -2.78141
LeftUpLeg  -22.399 -0.800774 6.70129
LeftLeg  37.7095 -6.8367 -5.23899
LeftFoot  -8.24321 0.298158 -9.10221
LeftToes  -1.18267e-011 3.61711e-011 9.57411e-011
942
root  50.9296 37.1525 -0.348599 -37.895 -84.8892 36.2474
RightUpLeg  -12.3234 2.20061 1.25321
RightLeg  38.4895 -6.86557 -6.12627
RightFoot  -22.4046 -0.292179 -1.46819
RightToes  -8.3237e-009 0 -3.6325e-017
Spine  10.8861 1.55282 -0.816554
Spine1  -1.07952 1.834 -1.01559
HEad  -14.9116 -1.45182 8.84648
LeftShoulder1  -0.0973651 3.78066 -28.3147
LeftArm  6.58048 5.55721 -38.8134
LeftForeArm  27.6193 -16.2644 -6.72825
LeftHand  -0.0823921 6.49605 -4.38497
RightShoulder  -0.674829 -5.44586 28.0806
RightArm  23.3891 -2.77581 47.9592
RightForeArm  5.29793 27.3001 5.60258
RightHand  -0.288275 6.6349 -3.12558
LeftUpLeg  -20.8978 -2.48516 6.84922
LeftLeg  31.2739 -9.28804 -5.78067
LeftFoot  -8.62633 0.224026 -8.84225
LeftToes  -1.18267e-011 3.61711e-011 9.57411e-011
943
root  50.1112 36.1347 -0.698588 -65.6162 -84.6982 62.8487
RightUpLeg  -14.7878 2.79945 0.813214
RightLeg  48.7821 -6.99149 -8.81592
RightFoot  -25.4258 -0.257141 -0.672421
RightToes  -8.3237e-009 0 -3.6325e-017
Spine  13.4098 2.11703 -4.12639
Spine1  -1.94155 2.422 -2.58046
HEad  -17.9839 0.45522 11.148
LeftShoulder1  0.0162981 3.45846 -25.5745
LeftArm  0.147311 3.44479 -37.2838
LeftForeArm  29.9344 -13.929 -7.05631
LeftHand  -0.111311 7.07485 -4.55324
RightShoulder  -0.523426 -5.04435 27.0807
RightArm  24.1355 -3.84908 50.3786
RightForeArm  6.56508 28.8332 5.89633
RightHand  -0.236877 6.77622 -2.60499
LeftUpLeg  -20.6791 -0.991376 7.06666
LeftLeg  37.3277 -11.7933 -9.15729
LeftFoot  -16.0201 -0.35758 -11.5931
LeftToes  -1.18267e-011 3.61711e-011 9.57411e-011
944
root  49.5266 35.2291 -1.2357 -80.3824 -83.1485 76.9752
RightUpLeg  -18.4615 -0.189112 0.167038
RightLeg  58.4089 -5.85331 -10.5956
RightFoot  -25.7342 -0.197408 -0.180934
RightToes  -8.3237e-009 0 -3.6325e-017
Spine  14.9446 2.32349 -8.39603
Spine1  -0.387452 2.44269 -4.09331
HEad  -21.5595 2.80289 14.512
LeftShoulder1  -0.106934 3.85145 -24.3078
LeftArm  -5.26858 -2.22878 -34.818
LeftForeArm  31.4371 -11.946 -6.86181
LeftHand  -0.100591 7.49368 -3.19799
RightShoulder  -0.378844 -4.66736 25.6046
RightArm  23.0861 -4.70335 53.529
RightForeArm  9.62934 31.4388 6.36915
RightHand  -0.22633 6.41046 -2.5631
LeftUpLeg  -21.5628 2.24536 6.24163
LeftLeg  43.4108 -12.4091 -11.9032
LeftFoot  -19.1571 -0.578513 -10.1168
LeftToes  -1.18267e-011 3.61711e-011 9.57411e-011
945
root  48.979 34.3055 -1.86864 -71.9688 -82.4565 68.766
RightUpLeg  -23.0693 -5.16782 1.09265
RightLeg  65.8816 -4.05985 -10.4809
RightFoot  -25.6504 -0.117513 0.453696
RightToes  -8.3237e-009 0 -3.6325e-017
Spine  16.5724 2.2408 -10.7245
Spine1  1.45858 2.2523 -5.324
HEad  -28.498 6.48625 15.5035
LeftShoulder1  -0.110511 3.86297 -24.6397
LeftArm  -7.8764 -11.3566 -31.3648
LeftForeArm  33.0229 -10.4369 -6.98706
LeftHand  -0.0776707 8.58556 -0.979332
RightShoulder  -0.454866 -4.88342 26.0953
RightArm  20.5676 -6.80523 54.1182
RightForeArm  13.1956 35.0973 7.12203
RightHand  -0.230774 6.62271 -2.58326
LeftUpLeg  -24.0228 1.71358 7.23845
LeftLeg  49.1235 -11.8328 -13.8686
LeftFoot  -22.0122 -0.744864 -9.36054
LeftToes  -1.18267e-011 3.61711e-011 9.57411e-011
946
root  48.6461 33.5143 -2.56027 -58.2188 -82.7086 54.7454
RightUpLeg  -27.4754 -9.35257 2.70288
RightLeg  71.0443 -2.47187 -8.90929
RightFoot  -25.3454 0.101994 2.22822
RightToes  -8.3237e-009 0 -3.6325e-017
Spine  20.8995 2.2715 -10.2869
Spine1  1.95143 2.27802 -7.33487
HEad  -32.804 9.34295 15.3521
LeftShoulder1  0.0245753 3.42764 -26.1729
LeftArm  -11.277 -21.6013 -28.9446
LeftForeArm  34.8003 -9.23558 -6.7125
LeftHand  -0.052087 8.15825 -0.384474
RightShoulder  -0.423724 -4.78462 26.1521
RightArm  18.902 -9.96512 53.3936
RightForeArm  13.9097 37.9266 7.87514
RightHand  -0.189488 7.38605 -2.07813
LeftUpLeg  -26.3379 1.43457 9.83832
LeftLeg  54.196 -11.2214 -15.7478
LeftFoot  -23.7174 -0.826715 -8.91933
LeftToes  -1.18267e-011 3.61711e-011 9.57411e-011
